<?xml version="1.0" standalone="no"?>
<!DOCTYPE svg PUBLIC "-//W3C//DTD SVG 20010904//EN"
 "http://www.w3.org/TR/2001/REC-SVG-20010904/DTD/svg10.dtd">
<svg version="1.0" xmlns="http://www.w3.org/2000/svg"
 width="416.000000pt" height="416.000000pt" viewBox="0 0 416.000000 416.000000"
 preserveAspectRatio="xMidYMid meet">
<metadata>
Created by potrace 1.14, written by Peter Selinger 2001-2017
</metadata>
<g transform="translate(0.000000,416.000000) scale(0.100000,-0.100000)"
fill="#000000" stroke="none">
<path d="M1920 4144 c-136 -29 -239 -74 -339 -150 -61 -46 -1361 -1344 -1411
-1409 -68 -88 -135 -232 -155 -335 -12 -59 -13 -241 -3 -310 6 -36 24 -102 40
-148 60 -165 74 -181 809 -917 424 -425 703 -696 742 -723 138 -93 288 -142
445 -146 93 -3 210 12 281 35 52 17 185 81 189 90 2 5 10 9 18 9 8 0 14 4 14
8 0 4 13 15 29 25 16 9 126 114 245 232 119 118 218 215 220 215 2 0 73 -69
158 -154 216 -214 211 -214 416 -12 79 78 153 153 164 168 23 33 32 72 23 107
-4 14 -76 95 -161 182 l-156 157 241 241 c270 272 316 332 378 491 66 173 61
409 -13 594 -61 152 -87 181 -793 886 -366 366 -686 682 -711 702 -85 68 -201
124 -325 155 -83 21 -264 25 -345 7z m285 -758 c41 -19 152 -125 602 -574 411
-412 557 -564 575 -599 19 -39 23 -64 23 -133 0 -123 -15 -147 -224 -355
l-175 -175 -137 135 c-82 81 -145 136 -158 136 -12 1 -27 2 -33 3 -7 1 -25 -2
-39 -6 -28 -10 -328 -304 -340 -335 -16 -38 -9 -89 15 -122 13 -18 74 -82 136
-143 l111 -111 -23 -25 c-103 -111 -287 -281 -326 -301 -69 -35 -169 -40 -247
-11 -57 21 -85 48 -616 579 -595 595 -596 595 -603 702 -4 53 12 137 33 179
18 35 1076 1094 1131 1133 83 58 197 67 295 23z"/>
</g>
</svg>
